<svg width="56" height="51" viewBox="0 0 56 51" fill="none" xmlns="http://www.w3.org/2000/svg">
<path d="M3 43V18C3 15.2386 5.23857 13 8 13H9.25C10.8238 13 12.3057 12.259 13.25 11L18.8 3.6C19.0833 3.2223 19.5279 3 20 3H36C36.4722 3 36.9168 3.2223 37.2 3.6L42.75 11C43.6942 12.259 45.1763 13 46.75 13H48C50.7615 13 53 15.2386 53 18V43C53 45.7615 50.7615 48 48 48H8C5.23857 48 3 45.7615 3 43Z" fill="black" stroke="white" stroke-width="5" stroke-linecap="round" stroke-linejoin="round"/>
<path d="M28 38C33.5227 38 38 33.5227 38 28C38 22.4773 33.5227 18 28 18C22.4771 18 18 22.4773 18 28C18 33.5227 22.4771 38 28 38Z" fill="black" stroke="white" stroke-width="2" stroke-linecap="round" stroke-linejoin="round"/>
</svg>
