<svg width="50" height="51" viewBox="0 0 50 51" fill="none" xmlns="http://www.w3.org/2000/svg">
<path d="M14.1406 1.66159C13.0371 -0.0766864 10.5078 -0.564968 8.86719 0.743626C3.44727 5.0698 0 11.5249 0 18.7514H25L14.1406 1.66159ZM48.4375 9.37644H43.75C40.3027 9.37644 37.5 12.1792 37.5 15.6264V21.8764H0C0 26.8178 2.24609 31.2905 5.88867 34.6401C2.50977 35.5093 0 38.5464 0 42.1889C0 46.5053 3.49609 50.0014 7.8125 50.0014C12.1289 50.0014 15.625 46.5053 15.625 42.1889C15.625 41.3198 15.4492 40.5093 15.1953 39.728C17.3047 40.3042 19.5508 40.6264 21.875 40.6264C24.1992 40.6264 26.4551 40.3042 28.5547 39.728C28.291 40.5093 28.125 41.3198 28.125 42.1889C28.125 46.5053 31.6211 50.0014 35.9375 50.0014C40.2539 50.0014 43.75 46.5053 43.75 42.1889C43.75 38.5464 41.2402 35.5093 37.8613 34.6401C41.5039 31.2905 43.75 26.8178 43.75 21.8764V15.6264H48.4375C49.2969 15.6264 50 14.9233 50 14.0639V10.9389C50 10.0796 49.2969 9.37644 48.4375 9.37644ZM7.8125 45.3139C6.09375 45.3139 4.6875 43.9077 4.6875 42.1889C4.6875 40.4702 6.09375 39.0639 7.8125 39.0639C9.53125 39.0639 10.9375 40.4702 10.9375 42.1889C10.9375 43.9077 9.53125 45.3139 7.8125 45.3139ZM39.0625 42.1889C39.0625 43.9077 37.6562 45.3139 35.9375 45.3139C34.2188 45.3139 32.8125 43.9077 32.8125 42.1889C32.8125 40.4702 34.2188 39.0639 35.9375 39.0639C37.6562 39.0639 39.0625 40.4702 39.0625 42.1889Z" fill="black"/>
</svg>
