<svg width="50" height="45" viewBox="0 0 50 45" fill="none" xmlns="http://www.w3.org/2000/svg">
<path d="M34.9479 7.21354L42.7778 15.0434C43.1076 15.3733 43.1076 15.9115 42.7778 16.2413L23.8194 35.1996L15.7639 36.0937C14.6875 36.2153 13.776 35.3038 13.8976 34.2274L14.7917 26.1719L33.75 7.21354C34.0799 6.88368 34.6181 6.88368 34.9479 7.21354ZM49.0104 5.22569L44.7743 0.989583C43.4549 -0.329861 41.3108 -0.329861 39.9826 0.989583L36.9097 4.0625C36.5799 4.39236 36.5799 4.93056 36.9097 5.26042L44.7396 13.0903C45.0694 13.4201 45.6076 13.4201 45.9375 13.0903L49.0104 10.0174C50.3299 8.68924 50.3299 6.54514 49.0104 5.22569ZM33.3333 30.0434V38.8802H5.55556V11.1024H25.5035C25.7812 11.1024 26.0417 10.9896 26.2413 10.7986L29.7135 7.32639C30.3733 6.66667 29.9045 5.54688 28.9757 5.54688H4.16667C1.86632 5.54688 0 7.41319 0 9.71354V40.2691C0 42.5694 1.86632 44.4358 4.16667 44.4358H34.7222C37.0226 44.4358 38.8889 42.5694 38.8889 40.2691V26.5712C38.8889 25.6424 37.7691 25.1823 37.1094 25.8333L33.6371 29.3056C33.4462 29.5052 33.3333 29.7656 33.3333 30.0434Z" fill="black"/>
</svg>
