<svg id="Layer_1" data-name="Layer 1" xmlns="http://www.w3.org/2000/svg" viewBox="0 0 26.77 23"><defs><style>.cls-1{fill:#231f20;}</style></defs><path class="cls-1" d="M126.79,234.54a18.86,18.86,0,0,1-1.46-6.55,24.8,24.8,0,0,1,1.34-9.06,20.34,20.34,0,0,1,4.52-7.39l1.7,1.61a14.11,14.11,0,0,0-3.19,5.35,13.38,13.38,0,0,0-.71,6.61l4.2-1.46a26,26,0,0,1,2.68,8A26.05,26.05,0,0,1,126.79,234.54Zm16.21,0a17.12,17.12,0,0,1-1.46-6.3,25.61,25.61,0,0,1,1.34-9.31,20.34,20.34,0,0,1,4.52-7.39l1.7,1.61a13.93,13.93,0,0,0-3.24,5.35,13,13,0,0,0-.66,6.61l4.2-1.46a26,26,0,0,1,2.68,8A26.05,26.05,0,0,1,143,234.54Z" transform="translate(-125.31 -211.54)"/></svg>