<svg width="44" height="50" viewBox="0 0 44 50" fill="none" xmlns="http://www.w3.org/2000/svg">
<path d="M42.5781 46.875H40.625V2.34375C40.625 1.04932 39.5757 0 38.2812 0H5.46875C4.17432 0 3.125 1.04932 3.125 2.34375V46.875H1.17188C0.524707 46.875 0 47.3997 0 48.0469V50H43.75V48.0469C43.75 47.3997 43.2253 46.875 42.5781 46.875ZM12.5 7.42188C12.5 6.77471 13.0247 6.25 13.6719 6.25H17.5781C18.2253 6.25 18.75 6.77471 18.75 7.42188V11.3281C18.75 11.9753 18.2253 12.5 17.5781 12.5H13.6719C13.0247 12.5 12.5 11.9753 12.5 11.3281V7.42188ZM12.5 16.7969C12.5 16.1497 13.0247 15.625 13.6719 15.625H17.5781C18.2253 15.625 18.75 16.1497 18.75 16.7969V20.7031C18.75 21.3503 18.2253 21.875 17.5781 21.875H13.6719C13.0247 21.875 12.5 21.3503 12.5 20.7031V16.7969ZM17.5781 31.25H13.6719C13.0247 31.25 12.5 30.7253 12.5 30.0781V26.1719C12.5 25.5247 13.0247 25 13.6719 25H17.5781C18.2253 25 18.75 25.5247 18.75 26.1719V30.0781C18.75 30.7253 18.2253 31.25 17.5781 31.25ZM25 46.875H18.75V38.6719C18.75 38.0247 19.2747 37.5 19.9219 37.5H23.8281C24.4753 37.5 25 38.0247 25 38.6719V46.875ZM31.25 30.0781C31.25 30.7253 30.7253 31.25 30.0781 31.25H26.1719C25.5247 31.25 25 30.7253 25 30.0781V26.1719C25 25.5247 25.5247 25 26.1719 25H30.0781C30.7253 25 31.25 25.5247 31.25 26.1719V30.0781ZM31.25 20.7031C31.25 21.3503 30.7253 21.875 30.0781 21.875H26.1719C25.5247 21.875 25 21.3503 25 20.7031V16.7969C25 16.1497 25.5247 15.625 26.1719 15.625H30.0781C30.7253 15.625 31.25 16.1497 31.25 16.7969V20.7031ZM31.25 11.3281C31.25 11.9753 30.7253 12.5 30.0781 12.5H26.1719C25.5247 12.5 25 11.9753 25 11.3281V7.42188C25 6.77471 25.5247 6.25 26.1719 6.25H30.0781C30.7253 6.25 31.25 6.77471 31.25 7.42188V11.3281Z" fill="black"/>
</svg>
